<?xml version="1.0" encoding="utf-8"?>
<!-- Generator: Adobe Illustrator 15.0.0, SVG Export Plug-In . SVG Version: 6.00 Build 0)  -->
<!DOCTYPE svg PUBLIC "-//W3C//DTD SVG 1.1//EN" "http://www.w3.org/Graphics/SVG/1.1/DTD/svg11.dtd">
<svg version="1.1" id="Layer_1" xmlns="http://www.w3.org/2000/svg" xmlns:xlink="http://www.w3.org/1999/xlink" x="0px" y="0px"
	 width="50px" height="50px" viewBox="0 0 50 50" enable-background="new 0 0 50 50" xml:space="preserve">
<g>
	<path fill-rule="evenodd" clip-rule="evenodd" fill="#232E40" d="M47.52,12.737h-8.887l-1.196,7.035h8.706v25.995H3.858V19.771
		c8.807,0,16.373,0,24.601,0l1.196-7.035H2.48c-0.562,0-1.037,0.483-1.037,1.037v33.338c0,0.559,0.479,1.036,1.037,1.037
		l45.039,0.03c0.555,0,1.037-0.479,1.037-1.035V13.774C48.557,13.214,48.073,12.737,47.52,12.737z"/>
	<path fill-rule="evenodd" clip-rule="evenodd" fill="#232E40" d="M4.757,14.946h7.333c1.131,0,1.131,2.417,0,2.417H4.757
		C3.626,17.363,3.626,14.946,4.757,14.946z"/>
	<circle fill-rule="evenodd" clip-rule="evenodd" fill="#232E40" cx="40.908" cy="16.159" r="1.206"/>
	<circle fill-rule="evenodd" clip-rule="evenodd" fill="#232E40" cx="44.944" cy="16.159" r="1.206"/>
</g>
<path fill-rule="evenodd" clip-rule="evenodd" fill="#FF9900" d="M29.264,8.044l6.359-6.111c0.195-0.188,0.512-0.135,0.636,0.104
	l4.061,7.829c0.154,0.294-0.095,0.637-0.422,0.583l-3.236-0.534l-3.448,20.279l-7.729-3.005l-3.542,8.334l-6.165-3.493
	l-5.074,10.111l-4.428-0.001l7.814-15.683l5.917,3.353l3.304-7.774l6.768,2.632l2.62-15.407l-3.218-0.53
	C29.15,8.678,29.025,8.274,29.264,8.044z"/>
</svg>
